<svg width="96" height="96" xmlns="http://www.w3.org/2000/svg" xmlns:xlink="http://www.w3.org/1999/xlink" xml:space="preserve" overflow="hidden"><g><path d="M71.491 16 76 16 76 8 20 8 20 16 24.436 16C26.909 26.917 33.979 41.6 41.764 48.013 33.977 54.422 27.2 68.834 24.8 80L20 80 20 88 76 88 76 80 71.485 80C69.063 69.135 62 54.476 54.136 48.013 62.007 41.544 69.074 26.872 71.491 16ZM22 10 74 10 74 14 22 14ZM74 86 22 86 22 82 74 82ZM51.914 47.2C51.4658 47.5227 51.3641 48.1477 51.6869 48.5959 51.7498 48.6833 51.8265 48.76 51.914 48.823 59.7 54.437 66.905 69.064 69.443 80L26.833 80C29.312 68.976 36.359 54.318 43.983 48.825 44.4312 48.5023 44.5329 47.8773 44.2101 47.4291 44.1472 47.3417 44.0705 47.265 43.983 47.202 36.277 41.649 29.069 27 26.479 16L69.45 16C66.917 26.942 59.714 41.582 51.914 47.2Z"/><path d="M30.331 22 30.84 23.352C33.811 31.252 39.131 41.241 45.152 45.579L47.952 47.595 50.752 45.579C56.852 41.179 62.177 31.214 65.123 23.351L65.622 22ZM49.575 43.957 47.948 45.129 46.322 43.957C41.879 40.757 36.822 33.013 33.234 24L62.722 24C59.161 32.969 54.08 40.711 49.575 43.957Z"/></g></svg>